<svg width="18" height="18" viewBox="0 0 18 18" fill="none" xmlns="http://www.w3.org/2000/svg">
<path d="M12.5 7C13.3284 7 14 6.32843 14 5.5C14 4.67157 13.3284 4 12.5 4C11.6716 4 11 4.67157 11 5.5C11 6.32843 11.6716 7 12.5 7Z" stroke="#A5A7A7" stroke-miterlimit="10" stroke-linecap="round"/>
<path d="M17 1.9091C17 1.40691 16.5931 1 16.0909 1C16.0342 1 10.6815 1.00073 10.6815 1.00073C10.1979 1.00073 9.73495 0.975272 9.46659 1.24364L1.20154 9.50846C0.932819 9.77683 0.932819 10.2125 1.20154 10.4808L7.51933 16.7987C7.78769 17.0671 8.22332 17.0671 8.49168 16.7987L16.7564 8.53354C17.0247 8.26554 16.9993 7.81353 16.9993 7.31898C16.9993 7.31898 17 1.96583 17 1.9091Z" stroke="#A5A7A7" stroke-miterlimit="10" stroke-linecap="round"/>
</svg>
