<svg width="16" height="16" viewBox="0 0 16 16" fill="none" xmlns="http://www.w3.org/2000/svg">
<path d="M15.1275 11.9439H12.9965C12.1202 11.9439 11.966 11.3143 11.9442 10.9983V8.91684C11.9442 8.04136 11.204 7.96629 10.9896 7.96272H10.5015V7.96244H8.92346C8.04138 7.96244 7.96741 7.20849 7.96301 7.01189V4.99639C7.96301 4.1363 7.34049 3.99909 7.04958 3.9815H6.54914H4.97249C3.98096 3.9815 3.98151 3.06669 3.98151 3.06669V0.835894C3.96392 0.570553 3.82616 0 2.95919 0H0.892005C0.0921314 0 0.00579229 0.582651 0.000292985 0.795474V14.9116C0.000292985 14.9116 -0.0459011 15.8957 1.02179 15.8957H14.8424C15.7071 15.8957 15.8919 15.409 15.9252 15.1129V13.0127C15.9252 12.1661 15.4341 11.978 15.1275 11.9439ZM14.9183 14.1681C14.913 14.3579 14.8256 14.9039 13.96 14.9039H1.96217C1.27173 14.9039 1.10208 14.5066 1.06743 14.2292V13.9688V13.0331V12.1986V11.7113V9.81873V8.94434V8.43593V7.80544V4.99859V4.83581V1.85849C1.06743 1.13808 1.51618 1.00995 1.75155 0.991524H2.3188C2.48543 0.998949 3.01996 1.09684 3.01996 2.04904V3.42854C3.02244 3.64466 3.09778 4.83031 4.47453 4.83554H5.91232C6.13752 4.84296 6.86452 4.94057 6.86452 5.90845V7.42049C6.88515 7.84448 7.0867 8.94407 8.6133 8.94407H9.73461C9.73461 8.94407 10.7693 8.93829 10.7693 10.0728V11.4053V11.4237C10.7721 11.6035 10.8501 13.043 12.6712 13.0328H13.9234C14.125 13.0375 14.9169 13.107 14.9185 13.9325V14.1681H14.9183Z" fill="#A5A7A7"/>
</svg>
