<svg width="18" height="17" viewBox="0 0 18 17" fill="none" xmlns="http://www.w3.org/2000/svg">
<path d="M7.45488 15.8C8.93453 15.8 10.134 14.6005 10.134 13.1209C10.134 11.6412 8.93453 10.4417 7.45488 10.4417C5.97524 10.4417 4.77576 11.6412 4.77576 13.1209C4.77576 14.6005 5.97524 15.8 7.45488 15.8Z" stroke="#A5A7A7" stroke-width="1.2" stroke-miterlimit="10" stroke-linecap="round" stroke-linejoin="round"/>
<path d="M4.7757 13.1208H1" stroke="#A5A7A7" stroke-width="1.2" stroke-miterlimit="10" stroke-linecap="round" stroke-linejoin="round"/>
<path d="M16.9876 13.1208H10.3458" stroke="#A5A7A7" stroke-width="1.2" stroke-miterlimit="10" stroke-linecap="round" stroke-linejoin="round"/>
<path d="M10.5327 6.4542C12.0123 6.4542 13.2118 5.25472 13.2118 3.77508C13.2118 2.29543 12.0123 1.09595 10.5327 1.09595C9.05306 1.09595 7.85358 2.29543 7.85358 3.77508C7.85358 5.25472 9.05306 6.4542 10.5327 6.4542Z" stroke="#A5A7A7" stroke-width="1.2" stroke-miterlimit="10" stroke-linecap="round" stroke-linejoin="round"/>
<path d="M13.2243 3.77505H17" stroke="#A5A7A7" stroke-width="1.2" stroke-miterlimit="10" stroke-linecap="round" stroke-linejoin="round"/>
<path d="M1 3.77505H7.64175" stroke="#A5A7A7" stroke-width="1.2" stroke-miterlimit="10" stroke-linecap="round" stroke-linejoin="round"/>
</svg>
